<svg xmlns="http://www.w3.org/2000/svg" xmlns:xlink="http://www.w3.org/1999/xlink" fill="none" version="1.1" width="1993" height="501.1000061035156" viewBox="0 0 1993 501.1000061035156"><defs><clipPath id="master_svg0_77_9709"><rect x="0" y="0" width="1993" height="501.1000061035156" rx="0"/></clipPath></defs><g clip-path="url(#master_svg0_77_9709)"><g><path d="M17.000010961914064,159.00001591796877C7.500000961914062,153.40001591796874,-3.2999990380859376,129.69999591796875,7.300000961914063,122.19999591796875C11.500000961914063,119.69999591796875,13.900010961914063,120.99999991796875,16.80001096191406,122.39999591796875C45.80001096191406,137.30001591796875,74.50001096191406,152.80001591796875,103.20011096191406,168.10001591796873C155.70011096191405,196.00001591796877,208.50011096191406,223.60031591796874,260.70011096191405,252.10031591796874C276.8001109619141,260.9003159179688,290.6001109619141,260.4003159179688,306.6001109619141,251.70031591796874C384.3001109619141,209.70001591796876,462.40011096191404,168.50001591796877,540.5001109619141,127.29999591796874C546.5001109619141,124.09999591796876,549.400110961914,121.89999591796875,556.400110961914,123.89999591796875C562.900110961914,130.90001591796874,557.900110961914,155.20001591796876,551.300110961914,159.10001591796873C542.2001109619141,164.60001591796873,534.7001109619141,166.80001591796875,525.300110961914,171.80001591796875C509.3001109619141,180.40001591796874,493.3001109619141,189.00001591796877,477.3001109619141,197.70001591796876C448.20011096191405,212.70001591796876,452.1001109619141,210.80001591796875,440.50011096191406,217.40001591796874C419.50011096191406,229.10031591796874,401.00011096191406,238.40031591796875,378.90011096191404,251.50031591796875C365.40011096191404,259.4003159179688,360.8001109619141,260.30031591796876,346.40011096191404,269.4003159179688C334.8001109619141,276.30031591796876,334.90011096191404,290.30031591796876,337.40011096191404,302.1003159179687C323.40011096191404,309.80031591796876,309.3001109619141,317.6003159179687,295.3001109619141,325.30031591796876C287.70011096191405,329.50031591796875,280.3001109619141,330.1003159179687,272.40011096191404,325.70031591796874C257.90011096191404,317.50031591796875,243.10011096191405,309.70031591796874,228.50011096191406,301.70031591796874C227.90011096191407,289.50031591796875,230.50011096191406,273.00031591796875,216.60011096191405,267.30031591796876" fill="#FFFFFF" fill-opacity="1" style="mix-blend-mode:passthrough"/></g><g><path d="M350.70051624298094,372.3998485107422C337.30051624298096,378.4998485107422,335.999516242981,393.9998485107422,337.09951624298094,407.1998485107422C336.499516242981,407.4998485107422,335.999516242981,407.6998485107422,335.39951624298095,407.9998485107422C282.09951624298094,436.9998485107422,282.09951624298094,436.9998485107422,228.79951624298096,406.8998485107422C228.29951624298096,395.59984851074216,228.99951624298095,379.7998485107422,215.69951624298096,372.6998485107422C205.89951624298095,366.6998485107422,191.39951624298095,359.2998485107422,181.79951624298096,353.1998485107422C161.19951624298096,340.6998485107422,151.99951624298095,334.59984851074216,130.49951624298097,322.8999485107422C126.29951624298096,320.19994851074216,117.59951624298095,315.9999485107422,112.29951624298096,313.19994851074216C102.60001624298096,308.0999485107422,102.60001624298096,308.0999485107422,92.60001624298096,302.5999485107422C68.30001624298096,289.69994851074216,43.30001624298096,277.2999485107422,18.900016242980957,264.69994851074216C7.299996242980956,258.4999485107422,-0.10000375701904307,237.9999485107422,5.699996242980957,226.2999585107422C8.399996242980958,220.5999585107422,14.300016242980957,225.49995851074218,17.600016242980956,227.2999585107422C62.600016242980956,250.79994851074218,107.39951624298095,274.7999485107422,152.19951624298096,298.5999485107422C189.29951624298096,318.2999485107422,226.49951624298095,337.7998485107422,263.39951624298095,357.7998485107422C277.39951624298095,365.3998485107422,290.39951624298095,364.8998485107422,304.299516242981,357.3998485107422C384.999516242981,314.19994851074216,465.89951624298095,271.5999485107422,546.4995162429809,228.19999851074218C557.9995162429809,221.9999985107422,560.799516242981,222.99999951074219,561.299516242981,236.50004851074218C561.899516242981,251.6000485107422,557.5995162429809,260.60004851074217,543.199516242981,267.2000485107422C520.4995162429809,277.7000485107422,498.999516242981,290.7000485107422,476.999516242981,302.60004851074217" fill="#FFFFFF" fill-opacity="1" style="mix-blend-mode:passthrough"/></g><g><path d="M485.50020690917967,103.69992185211181C423.00020690917967,70.50002185211181,360.4002069091797,37.600021852111816,298.1002069091797,4.1000018521118164C286.8002069091797,-1.9999981478881836,277.5002069091797,-0.9000001478881836,266.6002069091797,5.000001852111817C205.9002069091797,37.70002185211182,145.0000069091797,69.80002185211181,84.19999690917969,102.19992185211181C79.89999690917969,104.49992185211181,76.09999890917969,105.49992185211181,75.39999390917968,110.89992185211182C74.49999190917968,117.99992185211181,79.29999690917968,119.49992185211181,83.69999690917969,121.89992185211182C145.5000069091797,155.0999218521118,207.6002069091797,186.9999218521118,269.5002069091797,219.9999218521118C273.9002069091797,222.39992185211182,278.4002069091797,224.5999218521118,286.20020690917966,224.0999218521118C288.0002069091797,223.39992185211182,292.20020690917966,222.19992185211183,296.0002069091797,220.19992185211183C359.7002069091797,186.39992185211182,423.2002069091797,152.39992185211182,487.00020690917967,118.99992185211181C501.6002069091797,111.39992185211182,493.4002069091797,107.89992185211182,485.50020690917967,103.69992185211181ZM392.8002069091797,117.39992185211182C358.6002069091797,135.5999218521118,324.3002069091797,153.79992185211182,290.0002069091797,171.89992185211182Q290.0002069091797,171.89992185211182,289.9002069091797,171.89992185211182C286.0002069091797,173.89992185211182,281.4002069091797,173.89992185211182,277.3002069091797,172.0999218521118C275.70020690917966,171.39992185211182,274.1002069091797,170.69992185211183,272.6002069091797,169.89992185211182C241.1002069091797,153.29992185211182,209.6002069091797,136.5999218521118,178.1002069091797,119.89992185211182C174.4000069091797,117.89992185211182,169.60000690917968,117.19992185211181,169.5000069091797,112.09992185211182C169.4000069091797,106.89992185211182,174.30000690917967,105.79992185211182,177.9002069091797,103.79992185211182C208.70020690917968,87.20002185211182,239.70020690917968,70.80002185211181,270.5002069091797,54.20002185211182C278.1002069091797,50.100021852111816,285.1002069091797,48.600021852111816,293.4002069091797,53.20002185211182C325.8002069091797,70.90002185211182,358.4002069091797,88.00002185211181,391.00020690917967,105.29992185211182C397.6002069091797,108.59992185211182,403.00020690917967,111.99992185211181,392.8002069091797,117.39992185211182Z" fill="#FFFFFF" fill-opacity="1" style="mix-blend-mode:passthrough"/></g><g><path d="M307.1998440999985,456.49964086914065C432.89984409999846,392.6000408691406,514.6998440999985,347.6000408691406,539.6998440999985,333.00000086914065C546.4998440999984,329.00000086914065,554.1998440999985,323.89999086914065,557.0998440999984,327.89999086914065C563.9998440999984,337.5000408691406,555.9998440999984,359.90004086914064,550.4998440999984,363.79994086914064C545.8998440999985,367.0000408691406,544.0998440999984,367.29994086914064,539.0998440999984,370.0000408691406C460.4998440999985,411.79994086914064,381.89984409999846,453.49964086914065,303.39984409999846,495.49964086914065C289.39984409999846,502.99964086914065,276.4998440999985,503.19964086914064,262.39984409999846,495.69964086914064C181.19984409999847,452.0996408691406,105.99984409999847,412.0000408691406,24.400044099998475,369.2000408691406C13.200044099998474,363.29994086914064,6.900004099998474,358.0000408691406,3.800004099998474,345.29994086914064C-1.3999959000015259,324.19998086914063,4.800004099998475,322.09997086914063,20.500044099998473,330.39999086914065C99.70004409999848,372.29994086914064,179.09984409999848,414.0000408691406,257.89984409999846,456.69964086914064C261.6998440999985,458.8996408691406,270.39984409999846,463.2996408691406,282.2998440999985,463.2996408691406C294.4998440999985,463.2996408691406,303.39984409999846,458.69964086914064,307.1998440999985,456.49964086914065Z" fill="#FFFFFF" fill-opacity="1" style="mix-blend-mode:passthrough"/></g><g><g><path d="M1479.79990234375,127.59999084472656C1479.89990234375,126.89999084472656,1479.89990234375,126.19999084472656,1479.99990234375,125.49999084472657Q1479.99990234375,125.49999084472657,1479.99990234375,125.39999084472656L1461.50000234375,125.39999084472656L1461.40000234375,125.89999084472656C1460.90000234375,130.09999084472656,1458.20010234375,133.09999084472656,1454.30000234375,133.99999084472657C1452.80000234375,134.29999084472655,1451.20010234375,134.49999084472657,1449.70010234375,134.49999084472657C1432.00010234375,134.49999084472657,1414.30000234375,134.49999084472657,1396.60010234375,134.49999084472657C1395.10010234375,134.49999084472657,1393.50010234375,134.29999084472655,1392.00010234375,133.99999084472657C1388.50010234375,133.19999084472656,1386.20010234375,131.09999084472656,1385.20010234375,127.99999084472657C1384.80000234375,126.79999084472657,1384.60010234375,125.39999084472656,1384.60010234375,123.99999084472657C1384.50010234375,121.99999084472657,1384.50010234375,119.89999084472656,1384.60010234375,117.89999084472656L1384.60010234375,115.99999084472657L1384.60010234375,113.69999084472656L1480.19990234375,113.89999084472656L1480.19990234375,107.19999084472656C1480.19990234375,102.09999084472656,1480.19990234375,96.89999084472656,1480.19990234375,91.79999084472657C1480.19990234375,89.39999084472656,1479.99990234375,87.29999084472657,1479.69990234375,85.29999084472657C1478.89990234375,79.99999084472657,1476.49990234375,75.49999084472657,1472.39990234375,71.99999084472657C1466.99990234375,67.19999084472656,1460.30000234375,64.79999584472657,1452.60000234375,64.69998934472656C1444.19990234375,64.69998934472656,1435.69990234375,64.59999084472656,1427.19990234375,64.59999084472656C1417.89990234375,64.59999084472656,1408.60000234375,64.59999084472656,1399.39990234375,64.59999084472656L1393.69990234375,64.59999084472656C1392.00000234375,64.59999084472656,1390.10000234375,64.79998784472656,1388.10000234375,65.09999084472656C1384.69990234375,65.69999084472656,1381.60000234375,66.79999084472657,1378.69990234375,68.39999084472656C1374.39990234375,70.79999084472657,1371.09997234375,73.99999084472657,1368.89990234375,77.99999084472657C1366.89990234375,81.59999084472656,1365.89990234375,85.49999084472657,1365.89990234375,89.99999084472657L1365.89990234375,104.39999084472656C1365.89990234375,110.89999084472656,1365.89990234375,117.39999084472656,1365.89990234375,123.89999084472656C1365.89990234375,125.19999084472656,1365.99987794375,126.59999084472656,1366.19995134375,127.99999084472657C1367.19995234375,135.19999084472656,1371.09997234375,140.89999084472657,1377.69990234375,144.89999084472657C1382.60000234375,147.79999084472655,1388.19990234375,149.29999084472655,1394.29990234375,149.29999084472655C1411.60000234375,149.29999084472655,1428.79990234375,149.29999084472655,1446.10000234375,149.29999084472655L1451.90000234375,149.29999084472655C1456.90000234375,149.29999084472655,1461.60000234375,148.29999084472655,1465.80000234375,146.29999084472655C1474.09990234375,142.39999084472657,1478.69990234375,136.19999084472656,1479.79990234375,127.59999084472656ZM1384.60000234375,88.79999084472657C1384.79990234375,84.19999084472656,1387.60000234375,80.89999084472656,1392.19990234375,79.89999084472656C1393.69990234375,79.59999084472656,1395.29990234375,79.39999084472656,1396.89990234375,79.39999084472656C1410.49990234375,79.39999084472656,1423.99990234375,79.39999084472656,1437.59990234375,79.39999084472656L1449.49990234375,79.39999084472656C1451.09990234375,79.39999084472656,1453.29990234375,79.49999084472657,1455.39990234375,80.19999084472656C1459.09990234375,81.49999084472657,1461.19990234375,84.19999084472656,1461.49990234375,87.99999084472657C1461.69980234375,90.19999084472656,1461.59990234375,92.49999084472657,1461.59990234375,94.69999084472656C1461.59990234375,95.59999084472656,1461.59990234375,96.59999084472656,1461.59990234375,97.49999084472657L1461.59990234375,98.79999084472657L1384.59990234375,98.79999084472657L1384.59990234375,97.09999084472656C1384.59990234375,96.29999084472657,1384.59990234375,95.49999084472657,1384.59990234375,94.59999084472656C1384.50000234375,92.79999084472657,1384.50000234375,90.79999084472657,1384.60000234375,88.79999084472657Z" fill="#FFFFFF" fill-opacity="1" style="mix-blend-mode:passthrough"/></g><g><path d="M1884.9998291015625,85.2999984741211C1884.1998291015625,79.9999984741211,1881.7998291015624,75.4999984741211,1877.6998291015625,71.9999984741211C1872.2998291015624,67.19999847412109,1865.5999291015626,64.8000034741211,1857.8999291015625,64.69999697412109C1849.4998291015625,64.69999697412109,1840.9998291015625,64.5999984741211,1832.4998291015625,64.5999984741211C1823.1998291015625,64.5999984741211,1813.8999291015625,64.5999984741211,1804.6998291015625,64.5999984741211L1798.9998291015625,64.5999984741211C1797.2999291015626,64.5999984741211,1795.3999291015625,64.79999547412109,1793.3999291015625,65.0999984741211C1789.9998291015625,65.69999847412109,1786.8999291015625,66.7999984741211,1783.9998291015625,68.39999847412109C1779.6998291015625,70.7999984741211,1776.3998991015626,73.9999984741211,1774.1998291015625,77.9999984741211C1772.1998291015625,81.5999984741211,1771.1998291015625,85.4999984741211,1771.1998291015625,89.9999984741211L1771.1998291015625,104.39999847412109C1771.1998291015625,110.89999847412109,1771.1998291015625,117.39999847412109,1771.1998291015625,123.89999847412109C1771.1998291015625,125.19999847412109,1771.2998047015626,126.5999984741211,1771.4998781015624,127.9999984741211C1772.4998791015626,135.1999984741211,1776.3998991015626,140.8999984741211,1782.9998291015625,144.8999984741211C1787.8999291015625,147.79999847412108,1793.4998291015625,149.29999847412108,1799.5998291015626,149.29999847412108C1816.8999291015625,149.29999847412108,1834.0998291015626,149.29999847412108,1851.3999291015625,149.29999847412108L1857.1999291015625,149.29999847412108C1862.1999291015625,149.29999847412108,1866.8999291015625,148.29999847412108,1871.0999291015626,146.29999847412108C1879.3998291015625,142.29999847412108,1883.9998291015625,136.0999984741211,1885.0998291015626,127.4999984741211C1885.1998291015625,126.7999984741211,1885.1998291015625,126.0999984741211,1885.2998291015624,125.39999847412109Q1885.2998291015624,125.39999847412109,1885.2998291015624,125.2999984741211L1866.7999291015626,125.2999984741211L1866.6999291015625,125.7999984741211C1866.1999291015625,129.9999984741211,1863.5000291015624,132.9999984741211,1859.5999291015626,133.8999984741211C1858.0999291015626,134.1999984741211,1856.5000291015624,134.3999984741211,1855.0000291015624,134.3999984741211C1837.3000291015626,134.3999984741211,1819.5999291015626,134.3999984741211,1801.9000291015625,134.3999984741211C1800.4000291015625,134.3999984741211,1798.8000291015626,134.1999984741211,1797.3000291015626,133.8999984741211C1793.8000291015626,133.0999984741211,1791.5000291015624,130.9999984741211,1790.5000291015624,127.89999847412109C1790.0999291015626,126.69999847412109,1789.9000291015625,125.2999984741211,1789.9000291015625,123.89999847412109C1789.8000291015626,121.89999847412109,1789.8000291015626,119.7999984741211,1789.9000291015625,117.7999984741211L1789.9000291015625,115.89999847412109L1789.9000291015625,113.5999984741211L1885.4998291015625,113.7999984741211L1885.4998291015625,107.0999984741211C1885.4998291015625,101.9999984741211,1885.4998291015625,96.7999984741211,1885.4998291015625,91.69999847412109C1885.3998291015625,89.39999847412109,1885.2998291015624,87.2999984741211,1884.9998291015625,85.2999984741211ZM1866.9000291015625,94.69999847412109C1866.9000291015625,95.5999984741211,1866.9000291015625,96.5999984741211,1866.9000291015625,97.4999984741211L1866.9000291015625,98.7999984741211L1789.9000291015625,98.7999984741211L1789.9000291015625,97.0999984741211C1789.9000291015625,96.2999984741211,1789.9000291015625,95.4999984741211,1789.9000291015625,94.5999984741211C1789.9000291015625,92.69999847412109,1789.9000291015625,90.5999984741211,1790.0000291015624,88.69999847412109C1790.1999291015625,84.0999984741211,1793.0000291015624,80.7999984741211,1797.5999291015626,79.7999984741211C1799.0999291015626,79.4999984741211,1800.6999291015625,79.2999984741211,1802.2999291015626,79.2999984741211C1815.8999291015625,79.2999984741211,1829.3999291015625,79.2999984741211,1842.9998291015625,79.2999984741211L1854.8999291015625,79.2999984741211C1856.4998291015625,79.2999984741211,1858.6999291015625,79.39999847412109,1860.7999291015626,80.0999984741211C1864.4998291015625,81.39999847412109,1866.5999291015626,84.0999984741211,1866.8999291015625,87.89999847412109C1866.9000291015625,90.2999984741211,1866.9000291015625,92.4999984741211,1866.9000291015625,94.69999847412109Z" fill="#FFFFFF" fill-opacity="1" style="mix-blend-mode:passthrough"/></g><g><path d="M1196.6998779296875,85.2999984741211C1195.8998779296876,79.9999984741211,1193.4998779296875,75.4999984741211,1189.3998779296876,71.9999984741211C1183.9998779296875,67.19999847412109,1177.2998779296875,64.8000034741211,1169.5998779296874,64.69999697412109C1161.1998779296875,64.69999697412109,1152.6998779296875,64.5999984741211,1144.1998779296875,64.5999984741211C1134.8997779296874,64.5999984741211,1125.5998779296874,64.5999984741211,1116.4998779296875,64.5999984741211L1110.7998779296875,64.5999984741211C1109.0999779296876,64.5999984741211,1107.1999779296875,64.79999547412109,1105.1999779296875,65.0999984741211C1101.7998779296875,65.69999847412109,1098.6999779296875,66.7999984741211,1095.7998779296875,68.39999847412109C1091.4998779296875,70.7999984741211,1088.1999479296876,73.9999984741211,1085.9998779296875,77.9999984741211C1083.9998779296875,81.5999984741211,1082.9998779296875,85.4999984741211,1082.9998779296875,89.9999984741211L1082.9998779296875,104.2999984741211C1082.9998779296875,110.89999847412109,1082.9998779296875,117.39999847412109,1082.9998779296875,123.9999984741211C1082.9998779296875,125.2999984741211,1083.0998535296876,126.69999847412109,1083.2999269296874,128.0999984741211C1084.2999279296876,135.29999847412108,1088.1999479296876,140.9999984741211,1094.7998779296875,144.9999984741211C1099.6999779296875,147.8999984741211,1105.2998779296875,149.3999984741211,1111.3998779296876,149.3999984741211C1128.6999779296875,149.3999984741211,1145.8998779296876,149.3999984741211,1163.1999779296875,149.3999984741211L1168.9999779296875,149.3999984741211C1173.9999779296875,149.3999984741211,1178.6999779296875,148.3999984741211,1182.8999779296876,146.3999984741211C1191.1998779296875,142.3999984741211,1195.7998779296875,136.1999984741211,1196.8998779296876,127.5999984741211C1196.9998779296875,126.89999847412109,1196.9998779296875,126.19999847412109,1197.0998779296874,125.4999984741211Q1197.0998779296874,125.4999984741211,1197.0998779296874,125.39999847412109L1178.5999779296876,125.39999847412109L1178.4999779296875,125.89999847412109C1177.9999779296875,130.0999984741211,1175.3000779296874,133.0999984741211,1171.3999779296876,133.9999984741211C1169.8999779296876,134.29999847412108,1168.3000779296874,134.4999984741211,1166.8000779296874,134.4999984741211C1149.1000779296876,134.4999984741211,1131.3999779296876,134.4999984741211,1113.7000779296875,134.4999984741211C1112.2000779296875,134.4999984741211,1110.6000779296876,134.29999847412108,1109.1000779296876,133.9999984741211C1105.6000779296876,133.1999984741211,1103.3000779296874,131.0999984741211,1102.3000779296874,127.9999984741211C1101.8999779296876,126.7999984741211,1101.7000779296875,125.39999847412109,1101.7000779296875,123.9999984741211C1101.6000779296876,121.9999984741211,1101.6000779296876,119.89999847412109,1101.7000779296875,117.89999847412109L1101.7000779296875,115.9999984741211C1101.7000779296875,115.69999847412109,1101.7000779296875,115.4999984741211,1101.8000779296874,115.19999847412109L1101.9999779296875,113.89999847412109L1197.2998779296875,113.89999847412109L1197.2998779296875,107.19999847412109C1197.2998779296875,102.0999984741211,1197.2998779296875,96.89999847412109,1197.2998779296875,91.7999984741211C1197.0998779296874,89.39999847412109,1196.9998779296875,87.2999984741211,1196.6998779296875,85.2999984741211ZM1178.4999779296875,94.7999984741211C1178.4999779296875,95.69999847412109,1178.4999779296875,96.69999847412109,1178.4999779296875,97.5999984741211C1178.4999779296875,97.89999847412109,1178.3999779296876,98.0999984741211,1178.3000779296874,98.19999847412109L1178.1000779296876,98.7999984741211L1177.4001779296875,98.89999847412109L1101.7001779296875,98.89999847412109L1101.6001779296876,97.7999984741211C1101.6001779296876,97.5999984741211,1101.5002779296874,97.39999847412109,1101.5002779296874,97.19999847412109C1101.5002779296874,96.39999847412109,1101.5002779296874,95.5999984741211,1101.5002779296874,94.69999847412109C1101.5002779296874,92.7999984741211,1101.5002779296874,90.69999847412109,1101.6001779296876,88.7999984741211C1101.8001779296876,84.19999847412109,1104.6001779296876,80.89999847412109,1109.2001779296875,79.89999847412109C1110.7001779296875,79.5999984741211,1112.3001779296876,79.39999847412109,1113.9001779296875,79.39999847412109C1127.5000779296874,79.39999847412109,1141.0000779296874,79.39999847412109,1154.6000779296876,79.39999847412109L1166.5000779296874,79.39999847412109C1168.1000779296876,79.39999847412109,1170.3001779296874,79.4999984741211,1172.4001779296875,80.19999847412109C1176.1000779296876,81.4999984741211,1178.2001779296875,84.19999847412109,1178.5000779296874,87.9999984741211C1178.5999779296876,90.39999847412109,1178.4999779296875,92.5999984741211,1178.4999779296875,94.7999984741211Z" fill="#FFFFFF" fill-opacity="1" style="mix-blend-mode:passthrough"/></g><g><path d="M685.2,87L685.2,21.5L666.5,21.5L666.5,149.3C668.70001,149.3,670.40002,149.3,672.40002,149.3C675.40002,149.3,678.9,149.3,685.1,149.2L685.1,134.8C685.2,122,685.1,124.9,685.1,112.1L685.2,87Z" fill="#FFFFFF" fill-opacity="1" style="mix-blend-mode:passthrough"/></g><g><path d="M1989.9000220703124,77.90000762939454C1987.7001220703125,73.70000762939453,1984.5000220703125,70.49999762939453,1980.4000220703124,68.20000762939453C1976.3000220703125,65.90000762939454,1971.6000220703124,64.80000262939453,1966.0000220703125,64.70000452939453C1958.5000220703125,64.60000612939453,1951.6999220703126,64.60000612939453,1945.3000220703125,64.70000452939453C1941.0000220703125,64.80000262939453,1936.7001220703125,65.70000762939453,1933.0000220703125,67.30000762939453C1930.5000220703125,68.39999762939453,1928.3000220703125,70.10000762939453,1926.3000220703125,71.99999762939453L1926.2001220703125,72.09999762939454L1926.2001220703125,64.90000162939454L1907.5001220703125,64.90000162939454Q1907.9001460703125,149.60000762939453,1907.6000976703126,149.40000762939454L1926.1001220703124,149.40000762939454L1926.4001220703126,92.10000762939453C1926.4001220703126,90.40000762939454,1926.5001220703125,88.90000762939454,1926.7002220703125,87.60000762939453C1927.1002220703126,84.30000762939453,1928.9001220703126,81.90000762939454,1932.0002220703125,80.60000762939453C1934.2002220703125,79.70000762939453,1936.4002220703126,79.50000762939453,1938.3003220703124,79.50000762939453C1946.4002220703126,79.50000762939453,1954.4002220703126,79.50000762939453,1962.5002220703125,79.50000762939453C1963.8003220703124,79.50000762939453,1965.1002220703126,79.70000762939453,1966.4002220703126,79.90000762939454C1971.1002220703126,80.60000762939453,1974.1002220703126,84.00000762939453,1974.4002220703126,89.00000762939453L1993.0002220703125,89.00000762939453C1992.6000220703124,84.50000762939453,1991.5000220703125,80.90000762939454,1989.9000220703124,77.90000762939454Z" fill="#FFFFFF" fill-opacity="1" style="mix-blend-mode:passthrough"/></g><g><path d="M1302.699948828125,77.90000762939454C1300.500048828125,73.70000762939453,1297.299948828125,70.49999762939453,1293.199948828125,68.20000762939453C1289.099948828125,65.90000762939454,1284.399948828125,64.80000262939453,1278.799948828125,64.70000452939453C1271.299948828125,64.60000612939453,1264.499848828125,64.60000612939453,1258.099948828125,64.70000452939453C1253.799948828125,64.80000262939453,1249.500048828125,65.70000762939453,1245.799948828125,67.30000762939453C1243.299948828125,68.39999762939453,1241.099948828125,70.10000762939453,1239.099948828125,71.99999762939453L1239.000048828125,72.09999762939454L1239.000048828125,64.90000162939454L1220.300048828125,64.90000162939454Q1220.700072828125,149.60000762939453,1220.400024428125,149.40000762939454L1238.900048828125,149.40000762939454L1239.200048828125,92.10000762939453C1239.200048828125,90.40000762939454,1239.300048828125,88.90000762939454,1239.500148828125,87.60000762939453C1239.900148828125,84.30000762939453,1241.700048828125,81.90000762939454,1244.800148828125,80.60000762939453C1247.000148828125,79.70000762939453,1249.200148828125,79.50000762939453,1251.100248828125,79.50000762939453C1259.200148828125,79.50000762939453,1267.200148828125,79.50000762939453,1275.300148828125,79.50000762939453C1276.600248828125,79.50000762939453,1277.900148828125,79.70000762939453,1279.200148828125,79.90000762939454C1283.900148828125,80.60000762939453,1286.900148828125,84.00000762939453,1287.200148828125,89.00000762939453L1305.800148828125,89.00000762939453C1305.400048828125,84.50000762939453,1304.300048828125,80.90000762939454,1302.699948828125,77.90000762939454Z" fill="#FFFFFF" fill-opacity="1" style="mix-blend-mode:passthrough"/></g><g><path d="M1033.1999732421875,149.4C1034.1999732421875,149.4,1035.1999732421875,149.3,1036.1999732421875,149.2L1036.3998732421876,149.2C1041.6999732421875,148.6,1046.5998732421874,146.7,1050.7000732421875,143.8C1054.3000732421874,141.2,1056.9000732421875,138.1,1058.6000732421876,134.2C1059.9000732421875,131.1,1060.6000732421876,127.8,1060.6000732421876,124C1060.6000732421876,113.1,1060.6000732421876,102.2,1060.6000732421876,91.3L1060.6000732421876,89.9C1060.6000732421876,88.1,1060.5000732421875,85.8,1060.0000732421875,83.6C1058.6000732421876,78,1055.5000732421875,73.5,1050.8000732421874,70.2C1045.4999732421875,66.39999,1039.3000732421874,64.5,1032.4000732421875,64.5C1017.4999732421875,64.5,1002.6999732421875,64.5,987.8000732421875,64.5C986.0000732421875,64.5,984.2000732421875,64.699997,982.4000732421875,65C978.3000732421875,65.7,974.4000732421875,67.2,970.8000732421875,69.6C970.6000732421875,69.8,969.3000732421875,70.6,968.3000732421875,71.3L968.3000732421875,64.899994L949.7000732421875,64.899994L949.7000732421875,172.3C951.7000732421875,172.3,955.2000732421875,172.3,958.7000732421875,172.3C962.4000732421875,172.3,966.1000732421875,172.3,968.3000732421875,172.3L968.3000732421875,121.5C968.3000732421875,111.5,968.3000732421875,101.4,968.3000732421875,91.4L968.3000732421875,90.9C968.3000732421875,89.9,968.3000732421875,88.9,968.4000732421875,87.8C968.9000732421875,84,970.9000732421875,81.4,974.3000732421875,80.3C975.9000732421875,79.7,977.6000732421875,79.4,979.2000732421875,79.4C985.7000732421875,79.3,992.1000732421875,79.4,998.6000732421875,79.4L1005.2000732421875,79.4L1012.0000732421875,79.4C1018.4000732421875,79.4,1024.8000732421874,79.4,1031.2000732421875,79.4C1032.7000732421875,79.4,1034.4000732421875,79.7,1036.1000732421876,80.3C1039.7000732421875,81.6,1042.0000732421875,84.8,1042.0000732421875,88.8C1042.0000732421875,100.9,1042.0000732421875,113,1042.0000732421875,125.1C1042.0000732421875,129.8,1039.2000732421875,133.2,1034.7000732421875,134.2C1033.2000732421875,134.5,1031.7000732421875,134.7,1030.1000732421876,134.7C1017.5000732421875,134.7,1007.2000732421875,134.7,996.5000732421875,134.7L986.7001732421875,134.7L972.8000732421875,149.5C987.2001732421875,149.5,1017.1000732421875,149.5,1031.9001732421875,149.5L1033.1999732421875,149.4Z" fill="#FFFFFF" fill-opacity="1" style="mix-blend-mode:passthrough"/></g><g><path d="M1615.400048828125,148.99999923706054L1615.400048828125,24.299999237060547L1596.800048828125,24.39999923706055L1596.800048828125,123.09999923706054C1596.800048828125,124.09999923706054,1596.800048828125,125.09999923706054,1596.700048828125,126.19999923706055C1596.200048828125,129.99999923706054,1594.200048828125,132.59999923706056,1590.800048828125,133.69999923706055C1589.200048828125,134.29999923706055,1587.500048828125,134.59999923706056,1585.900048828125,134.59999923706056L1534.000048828125,134.59999923706056C1532.500048828125,134.59999923706056,1530.800048828125,134.29999923706055,1529.099948828125,133.69999923706055C1525.500048828125,132.39999923706054,1523.199948828125,129.19999923706055,1523.199948828125,125.19999923706055C1523.199948828125,113.09999923706054,1523.199948828125,100.99999923706055,1523.199948828125,88.89999923706054C1523.199948828125,84.19999923706055,1526.000048828125,80.79999923706055,1530.500048828125,79.79999923706055C1532.000048828125,79.49999923706055,1533.500048828125,79.29999923706055,1535.099948828125,79.29999923706055L1578.400048828125,79.29999923706055L1592.300048828125,64.49999923706055C1577.900048828125,64.49999923706055,1548.000048828125,64.49999923706055,1533.200048828125,64.49999923706055L1531.700048828125,64.49999923706055C1530.700048828125,64.49999923706055,1529.700048828125,64.59999923706054,1528.700048828125,64.69999923706055L1528.500148828125,64.69999923706055C1523.100048828125,65.29999923706055,1518.300148828125,67.19999923706055,1514.200068828125,70.09999923706054C1510.600098828125,72.69999923706055,1508.000118828125,75.89999923706054,1506.300048828125,79.69999923706055C1504.999999828125,82.79999923706055,1504.300048828125,86.09999923706054,1504.300048828125,89.89999923706054C1504.300048828125,101.29999923706055,1504.300048828125,112.59999923706054,1504.300048828125,123.99999923706055C1504.300048828125,125.79999923706055,1504.400024428125,128.09999923706056,1504.900024828125,130.29999923706055C1506.300048828125,135.89999923706054,1509.400028828125,140.39999923706054,1514.099978828125,143.69999923706055C1519.400048828125,147.49999923706054,1525.599948828125,149.39999923706054,1532.500048828125,149.39999923706054C1547.400048828125,149.39999923706054,1562.199948828125,149.39999923706054,1577.099948828125,149.39999923706054C1578.900048828125,149.39999923706054,1580.699948828125,149.19999923706055,1582.500048828125,148.89999923706054C1586.599948828125,148.19999923706055,1590.500048828125,146.69999923706055,1594.099948828125,144.29999923706055C1594.299948828125,144.09999923706056,1595.299948828125,143.49999923706054,1596.599948828125,142.79999923706055L1596.599948828125,148.99999923706054L1615.400048828125,148.99999923706054Z" fill="#FFFFFF" fill-opacity="1" style="mix-blend-mode:passthrough"/></g><g><path d="M1324.199951171875,22.5L1324.199951171875,149.4L1342.800051171875,149.4L1342.800051171875,22.5L1324.199951171875,22.5Z" fill="#FFFFFF" fill-opacity="1" style="mix-blend-mode:passthrough"/></g><g><path d="M774.0999877929687,22.499999955273438L774.0999877929687,80.30000915527344C758.3999877929688,80.30000915527344,706.4999877929688,80.30000915527344,697.4999877929688,80.30000915527344L685.2999877929688,95.10000915527344C699.8999877929688,95.10000915527344,752.0999877929687,95.10000915527344,774.0999877929687,95.10000915527344L774.0999877929687,149.40000915527344L792.7999877929688,149.40000915527344L792.7999877929688,22.400009155273438L774.0999877929687,22.499999955273438Z" fill="#FFFFFF" fill-opacity="1" style="mix-blend-mode:passthrough"/></g><g><path d="M1750.199951171875,64.99999994824219C1750.199951171875,64.80000294824218,1750.199951171875,64.59999894824219,1750.199951171875,64.40000194824219C1747.799951171875,64.40000194824219,1745.399951171875,64.40000194824219,1742.999951171875,64.40000194824219C1739.199951171875,64.40000194824219,1735.499951171875,64.40000194824219,1731.699951171875,64.40000194824219L1731.599951171875,70.99999694824218Q1724.099951171875,64.19999694824219,1711.499951171875,64.19999694824219C1704.499951171875,64.19999694824219,1697.599951171875,64.19999694824219,1690.599951171875,64.19999694824219C1682.999951171875,64.19999694824219,1675.400051171875,64.19999694824219,1667.799951171875,64.19999694824219C1665.599951171875,64.19999694824219,1663.799951171875,64.29999544824219,1662.199951171875,64.59999894824219C1657.799951171875,65.29999694824218,1653.899951171875,66.79999694824218,1650.499951171875,68.89999694824219C1645.599971171875,71.99999694824218,1642.300051171875,76.0999969482422,1640.599971171875,80.99999694824218C1639.699951171875,83.5999969482422,1639.199951171875,86.49999694824218,1639.199951171875,89.79999694824218C1639.199951171875,97.29999694824218,1639.199951171875,104.69999694824219,1639.199951171875,112.19999694824219L1639.199951171875,123.39999694824219C1639.199951171875,125.39999694824219,1639.299926771875,127.19999694824219,1639.599975171875,128.79999694824218C1640.400021171875,133.1999969482422,1642.199951171875,137.0999969482422,1645.199951171875,140.1999969482422C1650.699951171875,146.0999969482422,1657.699951171875,149.0999969482422,1665.899951171875,149.1999969482422C1679.599851171875,149.39999694824218,1695.599851171875,149.29999694824218,1711.099851171875,149.29999694824218L1712.899951171875,149.29999694824218L1726.799951171875,134.4999969482422C1709.899951171875,134.4999969482422,1685.499851171875,134.4999969482422,1669.499851171875,134.4999969482422C1667.999851171875,134.4999969482422,1666.399951171875,134.29999694824218,1664.599851171875,133.79999694824218C1660.699851171875,132.6999969482422,1658.199851171875,129.6999969482422,1657.899951171875,125.39999694824219C1657.899951171875,124.89999694824219,1657.899951171875,124.49999694824218,1657.899951171875,123.99999694824218L1657.899951171875,111.79999694824218L1657.899951171875,89.99999694824218C1657.899951171875,88.49999694824218,1657.999851171875,86.89999694824219,1658.599851171875,85.39999694824219C1659.599851171875,82.69999694824219,1661.499851171875,80.89999694824219,1664.099851171875,80.0999969482422C1665.799851171875,79.49999694824218,1667.499851171875,79.29999694824218,1668.999851171875,79.19999694824219C1675.499851171875,79.0999969482422,1681.899951171875,79.19999694824219,1688.399951171875,79.19999694824219L1694.999851171875,79.19999694824219L1701.499851171875,79.19999694824219C1707.999851171875,79.19999694824219,1714.499851171875,79.19999694824219,1720.999851171875,79.19999694824219C1722.499851171875,79.19999694824219,1724.099851171875,79.49999694824218,1725.699851171875,80.0999969482422C1728.499851171875,80.99999694824218,1730.399751171875,83.0999969482422,1731.199851171875,85.99999694824218C1731.499851171875,87.19999694824219,1731.699851171875,88.39999694824219,1731.699851171875,89.49999694824218L1731.799851171875,158.1999969482422L1731.799851171875,158.4999969482422C1731.799851171875,159.4999969482422,1731.799851171875,160.4999969482422,1731.799851171875,161.4999969482422C1731.799851171875,162.29999694824218,1731.599851171875,163.29999694824218,1731.199851171875,164.1999969482422C1730.199851171875,166.39999694824218,1728.499851171875,167.9999969482422,1725.999851171875,168.89999694824218C1724.299951171875,169.4999969482422,1722.399951171875,169.89999694824218,1720.399951171875,169.79999694824218L1698.199951171875,169.79999694824218C1687.999951171875,169.79999694824218,1677.599951171875,169.79999694824218,1668.899951171875,169.79999694824218L1656.699951171875,184.5999969482422C1670.099951171875,184.6999969482422,1693.599951171875,184.5999969482422,1710.899951171875,184.5999969482422L1723.099851171875,184.5999969482422C1724.399951171875,184.5999969482422,1725.699851171875,184.4999969482422,1726.899951171875,184.29999694824218C1731.099851171875,183.79999694824218,1735.199951171875,182.4999969482422,1738.899951171875,180.1999969482422C1743.399951171875,177.39999694824218,1746.599951171875,173.89999694824218,1748.499951171875,169.39999694824218C1749.799951171875,166.39999694824218,1750.399951171875,163.0999969482422,1750.399951171875,158.9999969482422C1750.399951171875,137.6999969482422,1750.399951171875,116.39999694824219,1750.399951171875,95.19999694824219L1750.199951171875,64.99999994824219Z" fill="#FFFFFF" fill-opacity="1" style="mix-blend-mode:passthrough"/></g><g><path d="M925.9999755859375,65.09999894824219C925.9999755859375,64.99999994824219,925.9999755859375,64.79999544824219,925.9999755859375,64.69999694824219L907.3999755859375,64.69999694824219L907.3999755859375,75.69999694824219C907.3999755859375,91.5999969482422,907.3999755859375,107.49999694824218,907.3999755859375,123.39999694824219C907.3999755859375,124.69999694824219,907.3000755859375,125.99999694824218,906.9999755859375,127.29999694824218C906.3999755859375,130.0999969482422,904.6999755859375,132.1999969482422,902.0999755859375,133.39999694824218C900.1999755859375,134.29999694824218,898.0999755859375,134.6999969482422,895.3999755859375,134.6999969482422L883.6999755859375,134.6999969482422C870.9999755859375,134.6999969482422,858.3999755859375,134.6999969482422,845.6999755859375,134.6999969482422C844.0999755859375,134.6999969482422,842.5999755859375,134.4999969482422,841.0999755859375,134.1999969482422C837.5999755859375,133.39999694824218,835.1999755859375,131.29999694824218,834.0999755859375,128.0999969482422C833.5999755859375,126.5999969482422,833.5999755859375,125.0999969482422,833.5999755859375,123.69999694824219L833.5999755859375,65.49999994824219C833.5999755859375,65.30000294824218,833.5999755859375,65.09999894824219,833.5999755859375,64.90000194824219L815.0999755859375,64.90000194824219L815.0999755859375,77.99999694824218C815.0999755859375,93.0999969482422,815.0999755859375,108.29999694824218,815.0999755859375,123.39999694824219C815.0999755859375,125.0999969482422,815.1999511859375,126.79999694824218,815.3999635859375,128.5999969482422C815.9999385859375,132.9999969482422,817.7999855859375,136.9999969482422,820.7999855859375,140.29999694824218C826.2999755859375,146.29999694824218,833.2999755859375,149.39999694824218,841.6999755859375,149.4999969482422L890.1999755859375,149.5999969482422C895.8999755859375,149.5999969482422,900.9999755859375,148.1999969482422,905.1000755859375,145.4999969482422C905.3000755859375,145.29999694824218,906.5000755859375,144.5999969482422,907.5000755859375,143.39999694824218L907.5000755859375,161.1999969482422C907.5000755859375,163.9999969482422,906.1000755859375,166.29999694824218,903.6000755859375,167.9999969482422C901.6000755859375,169.29999694824218,899.1999755859375,169.89999694824218,896.3000755859375,169.89999694824218L878.8000755859375,169.89999694824218C867.0000755859375,169.89999694824218,854.1000755859375,169.89999694824218,844.5000755859375,169.89999694824218L832.2000755859375,184.4999969482422C848.7000755859375,184.4999969482422,883.7000755859375,184.4999969482422,898.5000755859375,184.4999969482422C899.6000755859375,184.4999969482422,900.9000755859375,184.39999694824218,902.4000755859375,184.1999969482422C907.5000755859375,183.5999969482422,912.2000755859375,181.79999694824218,916.2999755859375,178.79999694824218C922.6999755859375,174.0999969482422,925.8999755859375,167.89999694824218,925.9999755859375,160.39999694824218C926.0999755859375,136.89999694824218,926.0999755859375,112.99999694824218,925.9999755859375,89.89999694824219L925.9999755859375,65.09999894824219Z" fill="#FFFFFF" fill-opacity="1" style="mix-blend-mode:passthrough"/></g></g><g><g><path d="M666.5,497.1999969482422L666.5,241.6999969482422L820.9,241.6999969482422L820.9,269.3999969482422L697.1,269.3999969482422L697.1,355.1999969482422L811,355.1999969482422L811,382.9999969482422L697.1,382.9999969482422L697.1,497.1999969482422L666.5,497.1999969482422Z" fill="#FFFFFF" fill-opacity="1" style="mix-blend-mode:passthrough"/></g><g><path d="M827.4000244140625,497.20001220703125L906.2000244140625,241.70001220703125L960.2000244140625,241.70001220703125L1039.0000244140624,497.20001220703125L1007.2000244140625,497.20001220703125L987.5000244140625,432.6000122070312L878.9000244140625,432.6000122070312L859.2000244140625,497.20001220703125L827.4000244140625,497.20001220703125ZM886.6000244140625,404.90001220703124L979.7000244140625,404.90001220703124L935.9000244140625,260.40001220703124L930.8000244140625,260.40001220703124L886.6000244140625,404.90001220703124Z" fill="#FFFFFF" fill-opacity="1" style="mix-blend-mode:passthrough"/></g><g><path d="M1065.4000244140625,497.20001220703125L1065.4000244140625,469.8000122070313L1101.2000244140625,469.8000122070313L1101.2000244140625,269.1000122070312L1065.4000244140625,269.1000122070312L1065.4000244140625,241.70001220703125L1193.5000244140624,241.70001220703125C1208.3000244140626,241.70001220703125,1221.5000244140624,244.40001220703124,1233.1000244140625,249.70001220703125C1244.7000244140625,255.10001220703126,1253.7000244140625,262.50001220703126,1260.1000244140625,272.1000122070312C1266.5000244140624,281.70001220703125,1269.8000244140626,293.00001220703126,1269.8000244140626,305.90001220703124L1269.8000244140626,308.8000122070313C1269.8000244140626,320.70001220703125,1267.5000244140624,330.50001220703126,1262.9000244140625,338.20001220703125C1258.3000244140626,345.90001220703124,1252.8000244140626,351.8000122070313,1246.5000244140624,356.1000122070312C1240.2000244140625,360.40001220703124,1234.0000244140624,363.50001220703126,1227.9000244140625,365.40001220703124L1227.9000244140625,370.50001220703126C1234.0000244140624,372.00001220703126,1240.3000244140626,374.8000122070313,1246.9000244140625,379.1000122070312C1253.5000244140624,383.40001220703124,1259.0000244140624,389.40001220703124,1263.5000244140624,397.20001220703125C1268.0000244140624,405.00001220703126,1270.3000244140626,414.8000122070313,1270.3000244140626,426.8000122070313L1270.3000244140626,430.40001220703124C1270.3000244140626,444.3000122070313,1267.0000244140624,456.3000122070313,1260.3000244140626,466.40001220703124C1253.6000244140625,476.50001220703126,1244.5000244140624,484.20001220703125,1232.9000244140625,489.40001220703124C1221.3000244140626,494.6000122070312,1208.1000244140625,497.20001220703125,1193.3000244140626,497.20001220703125L1065.4000244140625,497.20001220703125ZM1131.8000244140626,354.50001220703126L1190.9000244140625,354.50001220703126C1205.5000244140624,354.50001220703126,1217.2000244140625,350.8000122070313,1225.9000244140625,343.40001220703124C1234.7000244140625,336.00001220703126,1239.0000244140624,326.20001220703125,1239.0000244140624,314.00001220703126L1239.0000244140624,310.3000122070313C1239.0000244140624,297.90001220703124,1234.7000244140625,288.00001220703126,1226.0000244140624,280.6000122070312C1217.4000244140625,273.20001220703125,1205.6000244140625,269.50001220703126,1190.8000244140626,269.50001220703126L1131.7000244140625,269.50001220703126L1131.7000244140625,354.50001220703126L1131.8000244140626,354.50001220703126ZM1131.8000244140626,469.50001220703126L1189.8000244140626,469.50001220703126C1205.9000244140625,469.50001220703126,1218.1000244140625,465.70001220703125,1226.7000244140625,458.20001220703125C1235.2000244140625,450.70001220703125,1239.5000244140624,440.40001220703124,1239.5000244140624,427.50001220703126L1239.5000244140624,424.20001220703125C1239.5000244140624,411.3000122070313,1235.2000244140625,401.1000122070312,1226.7000244140625,393.50001220703126C1218.2000244140625,386.00001220703126,1205.9000244140625,382.20001220703125,1189.8000244140626,382.20001220703125L1131.8000244140626,382.20001220703125L1131.8000244140626,469.50001220703126Z" fill="#FFFFFF" fill-opacity="1" style="mix-blend-mode:passthrough"/></g><g><path d="M1318.699951171875,497.1999969482422L1318.699951171875,241.6999969482422L1421.999951171875,241.6999969482422C1437.799951171875,241.6999969482422,1451.699951171875,244.39999694824218,1463.799951171875,249.89999694824218C1475.799951171875,255.39999694824218,1485.299951171875,263.1999969482422,1492.099951171875,273.2999969482422C1498.899951171875,283.3999969482422,1502.299951171875,295.4999969482422,1502.299951171875,309.59999694824216L1502.299951171875,313.59999694824216C1502.299951171875,330.3999969482422,1498.299951171875,343.6999969482422,1490.299951171875,353.3999969482422C1482.299951171875,363.09999694824216,1472.799951171875,369.6999969482422,1461.799951171875,373.09999694824216L1461.799951171875,378.1999969482422C1470.599951171875,378.3999969482422,1477.799951171875,381.2999969482422,1483.499951171875,386.7999969482422C1489.199951171875,392.2999969482422,1492.099951171875,400.4999969482422,1492.099951171875,411.3999969482422L1492.099951171875,497.1999969482422L1461.799951171875,497.1999969482422L1461.799951171875,415.09999694824216C1461.799951171875,407.7999969482422,1459.799951171875,402.1999969482422,1455.799951171875,398.2999969482422C1451.799951171875,394.3999969482422,1445.799951171875,392.4999969482422,1437.699951171875,392.4999969482422L1349.399951171875,392.4999969482422L1349.399951171875,497.2999969482422L1318.699951171875,497.2999969482422L1318.699951171875,497.1999969482422ZM1349.400051171875,364.6999969482422L1419.099951171875,364.6999969482422C1435.899951171875,364.6999969482422,1448.799951171875,360.59999694824216,1457.999951171875,352.4999969482422C1467.099951171875,344.3999969482422,1471.699951171875,332.9999969482422,1471.699951171875,318.3999969482422L1471.699951171875,315.7999969482422C1471.699951171875,301.1999969482422,1467.199951171875,289.7999969482422,1458.199951171875,281.6999969482422C1449.199951171875,273.4999969482422,1436.199951171875,269.4999969482422,1419.099951171875,269.4999969482422L1349.400051171875,269.4999969482422L1349.400051171875,364.6999969482422Z" fill="#FFFFFF" fill-opacity="1" style="mix-blend-mode:passthrough"/></g><g><path d="M1549,497.1999969482422L1549,241.6999969482422L1579.7,241.6999969482422L1579.7,497.1999969482422L1549,497.1999969482422Z" fill="#FFFFFF" fill-opacity="1" style="mix-blend-mode:passthrough"/></g><g><path d="M1730.400048828125,502.3C1700.000048828125,502.3,1675.800048828125,493.5,1657.800048828125,475.8C1639.800048828125,458.2,1630.800048828125,432.4,1630.800048828125,398.6L1630.800048828125,340.2C1630.800048828125,306.4,1639.800048828125,280.6,1657.800048828125,263C1675.800048828125,245.39999,1700.000048828125,236.5,1730.400048828125,236.5C1760.600048828125,236.5,1783.700048828125,244.89999,1799.900048828125,261.7C1816.100048828125,278.5,1824.200048828125,301.5,1824.200048828125,330.7L1824.200048828125,332.5L1793.900048828125,332.5L1793.900048828125,329.6C1793.900048828125,310.4,1788.700048828125,294.6,1778.400048828125,282.3C1768.100048828125,270,1752.100048828125,263.9,1730.400048828125,263.9C1708.700048828125,263.9,1691.800048828125,270.5,1679.700048828125,283.8C1667.500148828125,297.1,1661.500148828125,315.6,1661.500148828125,339.5L1661.500148828125,399.4C1661.500148828125,423.2,1667.600048828125,441.8,1679.700048828125,455.1C1691.900048828125,468.4,1708.800048828125,475,1730.400048828125,475C1752.100048828125,475,1768.100048828125,468.9,1778.400048828125,456.6C1788.700048828125,444.3,1793.900048828125,428.6,1793.900048828125,409.3L1793.900048828125,403.5L1824.200048828125,403.5L1824.200048828125,408.2C1824.200048828125,437.4,1816.100048828125,460.4,1799.900048828125,477.2C1783.800048828125,493.9,1760.600048828125,502.3,1730.400048828125,502.3Z" fill="#FFFFFF" fill-opacity="1" style="mix-blend-mode:passthrough"/></g></g></g></svg>